<svg width="96" height="96" viewBox="0 0 96 96" fill="none" xmlns="http://www.w3.org/2000/svg">
<path d="M63.7575 11.7366C63.0202 12.9696 62.8231 14.4371 63.2115 15.8121C63.5999 17.1861 64.5397 18.3522 65.8223 19.0478C77.0907 25.4153 84.041 37.0955 84.0892 49.7459L84.0915 51.8069C83.9952 53.1887 84.4814 54.5482 85.4391 55.5749C86.3958 56.6018 87.7421 57.2076 89.1695 57.2534L89.4438 57.2531C90.851 57.2535 92.2055 56.7282 93.2248 55.7857C94.2452 54.8442 94.8517 53.5578 94.9214 52.1935C94.9205 51.3955 95.0566 50.4643 95.0557 49.6663C95.0307 41.587 92.8249 33.6533 88.6559 26.6582C84.487 19.664 78.5017 13.8507 71.2954 9.7995C70.0266 9.10291 68.5288 8.91591 67.1197 9.27838C65.7118 9.63981 64.5043 10.5227 63.7575 11.7361L63.7575 11.7366Z" fill="#F07C2C"/>
<path d="M24.6385 89.9741C31.6747 93.7346 39.574 95.7145 47.6074 95.7334C54.9328 95.753 62.1616 94.1044 68.7128 90.9223C70.4752 90.0645 71.6317 88.3609 71.7477 86.4523C71.8636 84.5426 70.9209 82.7188 69.2754 81.6667C67.6289 80.6159 65.5295 80.4955 63.7673 81.3523C58.6767 83.8027 53.0727 85.0835 47.3894 85.0949C41.2237 85.0833 35.1624 83.558 29.7695 80.6596C28.505 79.9527 26.9956 79.7801 25.5961 80.1838C24.1968 80.5886 23.0297 81.5323 22.369 82.7961C21.7242 84.0464 21.5993 85.489 22.0227 86.8259C22.4451 88.1627 23.3817 89.2897 24.6388 89.974L24.6385 89.9741Z" fill="#F07C2C"/>
<path d="M0.0560039 49.7097C0.0581221 51.6099 1.10487 53.3647 2.80223 54.3133C4.49964 55.261 6.59032 55.2586 8.2855 54.3071C9.9808 53.3545 11.0247 51.5975 11.0225 49.6973C11.0335 43.3408 12.8048 37.1029 16.151 31.6377C19.4961 26.1715 24.2943 21.6768 30.042 18.6245C31.5672 17.6299 32.4762 15.9606 32.4657 14.179C32.4541 12.3963 31.5233 10.7384 29.9875 9.76163C28.4505 8.7849 26.5115 8.62006 24.8226 9.32205C17.3275 13.266 11.0693 19.1006 6.70976 26.2096C2.35028 33.3185 0.0508668 41.4376 0.0557342 49.7098L0.0560039 49.7097Z" fill="#F07C2C"/>
<path d="M86.4343 62.4451C85.1092 61.8238 83.6547 61.5068 82.1837 61.5188C79.4202 61.5219 76.7713 62.5901 74.8199 64.4875C72.8673 66.3849 71.7732 68.9578 71.7762 71.6376C71.7772 74.4805 73.027 77.1876 75.2114 79.0815C77.119 80.6806 79.5478 81.5729 82.0689 81.5999C84.8325 81.5968 87.4814 80.5297 89.4328 78.6312C91.3843 76.7338 92.4795 74.162 92.4765 71.4812C92.4754 69.5705 91.9036 67.7008 90.8315 66.0976C89.7604 64.4934 88.2326 63.2257 86.4342 62.4454L86.4343 62.4451Z" fill="#F07C2C"/>
<path d="M38.6694 10.9687C38.8806 13.4843 40.0535 15.833 41.9571 17.5527C43.8616 19.2725 46.3596 20.241 48.9615 20.266C51.4498 20.2271 53.8446 19.3387 55.7242 17.7548C57.6028 16.171 58.846 13.9951 59.2335 11.6105C59.3404 11.1299 59.3866 10.639 59.369 10.1472C59.365 6.53614 57.3757 3.20187 54.1497 1.39999C50.9238 -0.401832 46.9529 -0.397342 43.7309 1.41177C40.509 3.22089 38.5271 6.5597 38.5311 10.1707C38.5197 10.443 38.5668 10.7151 38.6691 10.9687L38.6694 10.9687Z" fill="#F07C2C"/>
<path d="M11.447 59.9354C10.2268 59.9522 9.02063 60.1784 7.88259 60.6045C4.82806 61.7401 2.49964 64.201 1.59636 67.2519C0.693092 70.302 1.31855 73.5863 3.28569 76.1216C5.25389 78.6569 8.33483 80.1485 11.6064 80.149C14.0703 80.1637 16.4567 79.3104 18.3205 77.7482C20.6611 75.8266 22.011 73.004 22.014 70.0302C21.9568 67.3431 20.8208 64.7831 18.8471 62.8974C16.8722 61.0117 14.2168 59.9486 11.4467 59.9351L11.447 59.9354Z" fill="#F07C2C"/>
<path d="M47.5022 34.611C44.9365 34.5781 42.465 35.7117 40.6325 37.7617C38.8001 39.8115 37.7569 42.609 37.7339 45.5375C37.6708 48.3167 38.4984 51.0266 40.0614 53.1587C40.9238 54.3953 41.5425 55.8295 41.8757 57.3634C42.0366 57.9855 42.1612 58.619 42.2485 59.2602C42.3149 59.775 42.5416 60.2452 42.8872 60.5847C43.2328 60.9238 43.6742 61.1096 44.1301 61.1078L50.8743 61.1078C51.3303 61.1096 51.7714 60.9238 52.1169 60.5847C52.4625 60.2452 52.6893 59.775 52.756 59.2602C52.843 58.619 52.9675 57.9854 53.1285 57.3634C53.4617 55.8296 54.0804 54.3953 54.9428 53.1587C56.5058 51.0266 57.3334 48.3167 57.2703 45.5375C57.2473 42.609 56.2045 39.8114 54.372 37.7617C52.5392 35.7116 50.0676 34.5781 47.5022 34.611ZM52.4628 42.1207L46.1154 50.3418C45.9993 50.4913 45.8325 50.5771 45.6573 50.5771C45.4821 50.5771 45.3151 50.4913 45.199 50.3418L42.5417 46.8973C42.3222 46.608 42.348 46.1707 42.5999 45.9181C42.8515 45.6651 43.2347 45.6914 43.4581 45.9765L45.6574 48.8214L51.5465 41.193L51.5462 41.1933C51.7717 40.9089 52.1555 40.885 52.4068 41.1393C52.6581 41.3937 52.683 41.8314 52.4626 42.1206L52.4628 42.1207Z" fill="#F07C2C"/>
<path d="M46.8907 31.8218L46.8907 29.0326C46.8907 28.6475 47.1644 28.3354 47.5018 28.3354C47.8392 28.3354 48.1126 28.6475 48.1126 29.0326L48.1126 31.8218C48.1126 32.2069 47.8392 32.519 47.5018 32.519C47.1644 32.519 46.8907 32.2069 46.8907 31.8218Z" fill="#F07C2C"/>
<path d="M39.9476 34.3187L38.7259 31.9032L38.7256 31.9032C38.5601 31.57 38.661 31.1468 38.9518 30.9555C39.2425 30.7638 39.6141 30.8759 39.7842 31.206L41.0059 33.6215C41.1708 33.9547 41.0698 34.3772 40.7794 34.5685C40.489 34.7599 40.1176 34.6485 39.9476 34.3187Z" fill="#F07C2C"/>
<path d="M35.029 40.4448L32.9128 39.0504L32.9124 39.0504C32.6236 38.856 32.5259 38.4321 32.6936 38.1006C32.8612 37.7691 33.2314 37.6539 33.5232 37.8422L35.6395 39.2365L35.6398 39.2369C35.9287 39.431 36.0263 39.8549 35.8587 40.1864C35.691 40.5178 35.3206 40.6331 35.029 40.4448Z" fill="#F07C2C"/>
<path d="M33.4513 48.5567L31.0077 48.5567C30.6703 48.5567 30.3969 48.2446 30.3969 47.8595C30.3969 47.4744 30.6703 47.162 31.0077 47.162L33.4513 47.162C33.7887 47.162 34.0621 47.4744 34.0621 47.8595C34.0621 48.2446 33.7887 48.5567 33.4513 48.5567Z" fill="#F07C2C"/>
<path d="M32.912 56.6688L35.0282 55.2744L35.0285 55.274C35.3205 55.0851 35.6912 55.2003 35.8588 55.5321C36.0268 55.864 35.9285 56.2882 35.6393 56.482L33.5231 57.8764L33.5228 57.8767C33.2309 58.0663 32.8595 57.9511 32.6916 57.6193C32.5236 57.2871 32.6222 56.8625 32.912 56.6688Z" fill="#F07C2C"/>
<path d="M61.481 57.877L59.3648 56.4826L59.3645 56.4822C59.0756 56.2881 58.978 55.8642 59.1456 55.5328C59.3132 55.2013 59.6837 55.0861 59.9756 55.2743L62.0918 56.6687L62.0918 56.669C62.3807 56.8631 62.4786 57.287 62.311 57.6185C62.1434 57.95 61.7729 58.0652 61.481 57.877Z" fill="#F07C2C"/>
<path d="M63.996 48.5567L61.5524 48.5567C61.215 48.5567 60.9416 48.2446 60.9416 47.8595C60.9416 47.4744 61.215 47.162 61.5524 47.162L63.996 47.162C64.3334 47.162 64.6068 47.4744 64.6068 47.8595C64.6068 48.2446 64.3334 48.5567 63.996 48.5567Z" fill="#F07C2C"/>
<path d="M59.3647 39.2366L61.481 37.8422L61.4813 37.8419C61.7732 37.653 62.144 37.7682 62.3119 38.1C62.4795 38.4318 62.3816 38.856 62.0921 39.0502L59.9759 40.4446C59.6836 40.6342 59.3123 40.519 59.1443 40.1872C58.9764 39.855 59.0749 39.4304 59.3647 39.2367L59.3647 39.2366Z" fill="#F07C2C"/>
<path d="M53.9984 33.6216L55.22 31.2061L55.2203 31.2061C55.3904 30.8764 55.7617 30.765 56.0522 30.9563C56.3426 31.1477 56.4435 31.5701 56.2786 31.9033L55.057 34.3188L55.0567 34.3188C54.8869 34.6496 54.5149 34.7621 54.2242 34.5704C53.9332 34.3787 53.8323 33.9549 53.9984 33.6216Z" fill="#F07C2C"/>
<path d="M51.7782 63.1995L43.2255 63.1995C42.8881 63.1995 42.6147 62.8874 42.6147 62.5023C42.6147 62.1172 42.8881 61.8048 43.2255 61.8048L51.7782 61.8048C52.1156 61.8048 52.3893 62.1172 52.3893 62.5023C52.3893 62.8874 52.1156 63.1995 51.7782 63.1995Z" fill="#F07C2C"/>
<path d="M51.7782 65.2918L43.2255 65.2918C42.8881 65.2918 42.6147 64.9794 42.6147 64.5943C42.6147 64.2092 42.8881 63.8971 43.2255 63.8971L51.7782 63.8971C52.1156 63.8971 52.3893 64.2092 52.3893 64.5943C52.3893 64.9794 52.1156 65.2918 51.7782 65.2918Z" fill="#F07C2C"/>
<path d="M49.9459 67.383L45.0587 67.383C44.7213 67.383 44.4476 67.0709 44.4476 66.6858C44.4476 66.3007 44.7213 65.9886 45.0587 65.9886L49.9459 65.9886C50.2833 65.9886 50.5568 66.3007 50.5568 66.6858C50.5568 67.0709 50.2833 67.383 49.9459 67.383Z" fill="#F07C2C"/>
</svg>
