<svg width="96" height="95" viewBox="0 0 96 95" fill="none" xmlns="http://www.w3.org/2000/svg">
<path d="M63.7571 11.6321C63.0198 12.854 62.8227 14.3084 63.2111 15.6712C63.5995 17.0328 64.5393 18.1885 65.8219 18.8779C77.0903 25.1885 84.0406 36.7641 84.0888 49.3013L84.0911 51.3439C83.9948 52.7133 84.481 54.0606 85.4387 55.0782C86.3954 56.0959 87.7417 56.6962 89.1691 56.7416L89.4433 56.7413C90.8506 56.7418 92.2051 56.2212 93.2244 55.2871C94.2448 54.354 94.8513 53.0791 94.921 51.7271C94.9201 50.9362 95.0562 50.0133 95.0553 49.2224C95.0303 41.2154 92.8245 33.3527 88.6555 26.4202C84.4866 19.4886 78.5013 13.7273 71.295 9.71234C70.0262 9.02199 68.5284 8.83666 67.1193 9.19588C65.7114 9.55408 64.5039 10.4291 63.7571 11.6316L63.7571 11.6321Z" fill="#F07C2C"/>
<path d="M24.6381 89.1696C31.6743 92.8964 39.5736 94.8586 47.6069 94.8773C54.9323 94.8967 62.1612 93.2629 68.7124 90.1092C70.4748 89.2591 71.6313 87.5708 71.7473 85.6792C71.8631 83.7867 70.9205 81.9792 69.275 80.9365C67.6285 79.895 65.5291 79.7758 63.7669 80.6249C58.6763 83.0534 53.0722 84.3227 47.389 84.334C41.2233 84.3225 35.162 82.8109 29.7691 79.9384C28.5046 79.2378 26.9952 79.0668 25.5957 79.4669C24.1964 79.868 23.0293 80.8033 22.3686 82.0557C21.7237 83.2949 21.5989 84.7246 22.0223 86.0496C22.4447 87.3744 23.3813 88.4912 24.6384 89.1695L24.6381 89.1696Z" fill="#F07C2C"/>
<path d="M0.0555004 49.2654C0.0576186 51.1486 1.10437 52.8877 2.80173 53.8278C4.49914 54.767 6.58981 54.7647 8.285 53.8217C9.98029 52.8776 11.0242 51.1363 11.022 49.2531C11.033 42.9535 12.8043 36.7714 16.1505 31.3551C19.4956 25.9378 24.2938 21.4833 30.0415 18.4584C31.5666 17.4726 32.4757 15.8183 32.4652 14.0526C32.4536 12.2858 31.5228 10.6428 29.987 9.67477C28.45 8.70678 26.511 8.54342 24.8221 9.23913C17.327 13.1478 11.0687 18.9302 6.70926 25.9755C2.34977 33.0208 0.0503633 41.0673 0.0552307 49.2655L0.0555004 49.2654Z" fill="#F07C2C"/>
<path d="M86.4339 61.8869C85.1088 61.2711 83.6543 60.957 82.1833 60.9689C79.4197 60.972 76.7708 62.0306 74.8195 63.911C72.8669 65.7914 71.7727 68.3413 71.7757 70.9971C71.7768 73.8145 73.0266 76.4975 75.211 78.3744C77.1186 79.9592 79.5474 80.8435 82.0685 80.8703C84.8321 80.8672 87.481 79.8097 89.4323 77.9282C91.3839 76.0478 92.4791 73.499 92.4761 70.8421C92.475 68.9485 91.9032 67.0955 90.831 65.5067C89.7599 63.9168 88.2322 62.6605 86.4338 61.8871L86.4339 61.8869Z" fill="#F07C2C"/>
<path d="M38.669 10.871C38.8801 13.3641 40.053 15.6918 41.9566 17.3961C43.8612 19.1005 46.3591 20.0603 48.961 20.0851C51.4493 20.0466 53.8441 19.1661 55.7237 17.5964C57.6023 16.0267 58.8455 13.8703 59.2331 11.5071C59.3399 11.0307 59.3861 10.5443 59.3686 10.0568C59.3646 6.4781 57.3753 3.17366 54.1493 1.38791C50.9233 -0.39779 46.9524 -0.39334 43.7305 1.39959C40.5085 3.19251 38.5266 6.50145 38.5307 10.0802C38.5193 10.35 38.5663 10.6197 38.6687 10.871L38.669 10.871Z" fill="#F07C2C"/>
<path d="M11.4466 59.3996C10.2264 59.4163 9.02021 59.6404 7.88217 60.0627C4.82764 61.1881 2.49922 63.627 1.59594 66.6506C0.692673 69.6734 1.31813 72.9284 3.28527 75.441C5.25347 77.9536 8.33441 79.4318 11.606 79.4323C14.0699 79.4469 16.4562 78.6012 18.3201 77.053C20.6607 75.1487 22.0106 72.3513 22.0135 69.404C21.9563 66.741 20.8204 64.2039 18.8467 62.3351C16.8718 60.4663 14.2164 59.4127 11.4463 59.3993L11.4466 59.3996Z" fill="#F07C2C"/>
<path fill-rule="evenodd" clip-rule="evenodd" d="M60.9604 66.7947H34.1466C32.1026 66.7947 30.4402 65.2139 30.4179 63.2498L30.4178 44.5742C30.4136 43.6218 30.8058 42.7082 31.5052 42.0348C32.2056 41.3625 33.1559 40.9854 34.1465 40.9895H34.8597L34.8597 40.2772C34.8597 35.9271 37.2735 31.9061 41.1923 29.7317C45.1111 27.5562 49.9399 27.5562 53.859 29.7317C57.7789 31.9062 60.1928 35.9274 60.1928 40.2772L60.1928 40.9762H60.9198C61.9094 40.9721 62.8596 41.3492 63.5601 42.0226C64.2605 42.6949 64.6517 43.6085 64.6485 44.5609L64.6486 63.2496C64.6263 65.1983 62.9883 66.7731 60.9602 66.7945L60.9604 66.7947ZM47.5538 32.3843C45.3716 32.3843 43.2798 33.2171 41.7376 34.6998C40.1942 36.1825 39.328 38.1945 39.328 40.2914L39.328 41.0159L55.7785 41.017L55.7785 40.3579C55.7966 38.2487 54.9388 36.2204 53.3944 34.7233C51.849 33.2263 49.7467 32.3843 47.5538 32.3843ZM60.1939 46.7363H60.1928C60.1928 46.3551 60.0355 45.9903 59.7549 45.7205C59.4753 45.4508 59.0948 45.2995 58.6983 45.2995H36.3668C35.542 45.2995 34.8724 45.9433 34.8724 46.7363L34.8724 61.0629C34.8724 61.444 35.0308 61.8089 35.3103 62.0786C35.5909 62.3473 35.9704 62.4986 36.3669 62.4986H58.7536C59.1501 62.4986 59.5296 62.3474 59.8102 62.0786C60.0908 61.8089 60.2481 61.444 60.2481 61.0629L60.1939 46.7363ZM47.8556 58.1759H47.101C46.6078 58.1759 46.1348 57.9868 45.7872 57.6507C45.4397 57.3134 45.2462 56.8577 45.2505 56.3835L45.2504 51.3886C45.2462 50.9145 45.4396 50.4587 45.7872 50.1215C46.1348 49.7853 46.6078 49.5962 47.101 49.5962H47.8545C48.3584 49.5819 48.8473 49.7638 49.2087 50.1021C49.5701 50.4393 49.7742 50.9042 49.7742 51.3886L49.7742 56.3315L49.7742 56.3305C49.7891 56.8128 49.6009 57.2808 49.2523 57.6282C48.9047 57.9746 48.4253 58.1729 47.9237 58.1759L47.8556 58.1759Z" fill="#F07C2C"/>
</svg>
