<svg width="98" height="95" viewBox="0 0 98 95" fill="none" xmlns="http://www.w3.org/2000/svg">
<path d="M65.512 83.3104C64.7544 82.0883 64.5518 80.6338 64.9509 79.2709C65.3501 77.9091 66.3157 76.7533 67.6336 76.0638C79.2122 69.7526 86.3539 58.1756 86.4033 45.6371L86.4057 43.5942C86.3068 42.2247 86.8064 40.8772 87.7904 39.8595C88.7734 38.8417 90.1568 38.2413 91.6235 38.1959L91.9053 38.1962C93.3513 38.1957 94.7431 38.7164 95.7904 39.6506C96.8389 40.5838 97.4621 41.8588 97.5337 43.211C97.5328 44.002 97.6726 44.925 97.6717 45.716C97.6461 53.7238 95.3796 61.5875 91.0958 68.5207C86.8121 75.4531 80.6621 81.215 73.2573 85.2304C71.9536 85.9208 70.4146 86.1062 68.9668 85.7469C67.5201 85.3887 66.2793 84.5136 65.5119 83.3109L65.512 83.3104Z" fill="#F07C2C"/>
<path d="M25.316 5.76435C32.5459 2.0371 40.6626 0.0746664 48.9171 0.0559376C56.4442 0.0365546 63.872 1.67057 70.6036 4.82456C72.4145 5.67475 73.6028 7.36328 73.722 9.25507C73.841 11.1479 72.8724 12.9555 71.1817 13.9983C69.4898 15.0399 67.3327 15.1591 65.5219 14.31C60.2912 11.8812 54.5329 10.6118 48.6932 10.6004C42.3577 10.6119 36.1296 12.1237 30.5883 14.9965C29.2889 15.6972 27.738 15.8682 26.3 15.4681C24.8621 15.067 23.6629 14.1316 22.984 12.879C22.3214 11.6396 22.1931 10.2098 22.6282 8.88469C23.0622 7.5597 24.0246 6.44276 25.3163 5.76443L25.316 5.76435Z" fill="#F07C2C"/>
<path d="M0.0567594 45.673C0.0589358 43.7895 1.1345 42.0502 2.87858 41.11C4.62272 40.1707 6.77095 40.173 8.5128 41.1162C10.2548 42.0603 11.3274 43.8019 11.3252 45.6853C11.3365 51.9856 13.1565 58.1683 16.5948 63.5852C20.032 69.0031 24.9623 73.4581 30.8682 76.4834C32.4353 77.4692 33.3694 79.1238 33.3586 80.8897C33.3467 82.6566 32.3903 84.2999 30.8122 85.268C29.2329 86.2361 27.2406 86.3994 25.5051 85.7036C17.8037 81.7945 11.3732 76.0115 6.89368 68.9654C2.41419 61.9193 0.0514808 53.872 0.0564822 45.6728L0.0567594 45.673Z" fill="#F07C2C"/>
<path d="M88.8129 33.05C87.4513 33.6658 85.9568 33.98 84.4453 33.9681C81.6057 33.965 78.8839 32.9063 76.8788 31.0256C74.8724 29.145 73.7482 26.5949 73.7513 23.9388C73.7523 21.121 75.0366 18.4378 77.2811 16.5607C79.2412 14.9756 81.7369 14.0913 84.3274 14.0644C87.167 14.0675 89.8888 15.1252 91.8939 17.0069C93.8992 18.8875 95.0245 21.4366 95.0214 24.0938C95.0203 25.9875 94.4328 27.8407 93.3311 29.4297C92.2305 31.0198 90.6607 32.2763 88.8128 33.0497L88.8129 33.05Z" fill="#F07C2C"/>
<path d="M39.7332 84.0716C39.9501 81.5782 41.1553 79.2503 43.1113 77.5458C45.0683 75.8412 47.635 74.8813 50.3085 74.8564C52.8653 74.895 55.326 75.7756 57.2574 77.3454C59.1877 78.9153 60.4651 81.072 60.8633 83.4355C60.9731 83.9118 61.0206 84.3984 61.0026 84.8859C60.9984 88.465 58.9544 91.7698 55.6396 93.5557C52.3248 95.3416 48.2446 95.3372 44.934 93.5441C41.6233 91.7509 39.5869 88.4416 39.591 84.8625C39.5793 84.5927 39.6277 84.3229 39.7328 84.0716L39.7332 84.0716Z" fill="#F07C2C"/>
<path d="M11.7614 35.5376C10.5076 35.5209 9.26821 35.2968 8.09885 34.8744C4.96023 33.7489 2.56771 31.3097 1.63958 28.2858C0.711439 25.2626 1.35412 22.0073 3.37541 19.4945C5.39778 16.9815 8.56354 15.5032 11.9252 15.5026C14.4569 15.488 16.9089 16.3338 18.8241 17.8822C21.2291 19.7868 22.6162 22.5845 22.6192 25.5321C22.5605 28.1954 21.3932 30.7328 19.3652 32.6017C17.3359 34.4708 14.6075 35.5245 11.7611 35.5379L11.7614 35.5376Z" fill="#F07C2C"/>
<path d="M67.3492 38.0217C67.21 37.7478 66.9915 37.5162 66.7191 37.3539C66.4465 37.1913 66.1312 37.1043 65.8085 37.1028L54.7168 37.1028L58.825 28.0587C59.0508 27.5616 58.9925 26.9908 58.6708 26.5432C58.36 26.0887 57.8242 25.8155 57.2499 25.8179L43.5571 25.8179C43.2278 25.8182 42.9055 25.9079 42.629 26.0768C42.3528 26.2453 42.134 26.4859 41.9993 26.7691L33.441 44.5019C33.204 44.9989 33.2489 45.5746 33.5604 46.0335C33.8716 46.4982 34.4153 46.7787 34.9985 46.7751L46.6382 46.7751L43.5913 62.6056C43.5193 62.9593 43.5763 63.3256 43.7534 63.6444C43.9308 63.9636 44.2175 64.2168 44.5669 64.3629C44.9128 64.5123 45.302 64.5474 45.6718 64.4628C46.0416 64.3779 46.37 64.1778 46.6038 63.8952L67.1442 39.714L67.1442 39.7143C67.3465 39.48 67.4733 39.1959 67.5096 38.8963C67.5459 38.5963 67.4905 38.2927 67.3497 38.0215L67.3492 38.0217ZM50.2228 32.9874L46.7995 39.4358C46.5969 39.8195 46.2408 40.1113 45.8098 40.2472C45.3786 40.3831 44.9075 40.3519 44.5007 40.1602C44.094 39.9688 43.785 39.6328 43.6417 39.2264C43.4984 38.8199 43.5328 38.3766 43.7373 37.9937L47.1606 31.5453L47.1603 31.5453C47.3628 31.162 47.7189 30.8701 48.1502 30.7342C48.5815 30.5983 49.0522 30.6295 49.459 30.8209C49.8657 31.0126 50.1747 31.3486 50.318 31.7551C50.4613 32.1615 50.4269 32.6049 50.2228 32.9874Z" fill="#F07C2C"/>
</svg>
